<svg xmlns="http://www.w3.org/2000/svg" viewBox="0 0 152.457 99.968" height="377.831" width="576.215" fill="#444"><path d="M3.809 86.937c-.215-16.093-.375-21.984-.698-25.731-.856-9.93-1.082-13.027-1.32-18.124a360.461 360.461 0 00-.657-10.451C-.174 16.737-.371 5.776.65 5.776c.614 0 4.245 3.805 5.933 6.218 2.223 3.177.8 2.903 13.145 2.534 5.926-.177 11.294-.343 11.93-.37 1.154-.048 1.154-.048 1.73-1.643 1.81-5.007 4.93-8.938 5.3-6.673.077.473.26 1.566.409 2.43.147.863.269 2.53.27 3.704 0 2.325.889 10.302 1.312 11.791.199.7.733 1.284 2.177 2.382 1.053.8 2.094 1.663 2.313 1.918.397.46 1.333.644 1.348.264.029-.715 2.075-2.54 2.476-2.207.604.502.565.613-.768 2.174-1.505 1.764.547 4.64 3.072 4.305 1.552-.206 1.993.277.958 1.05-.7.522-.7.522.217 1.537 1.13 1.25.069 4.186-1.784 4.94-1.011.41-1.195 2.332-.342 3.588.71 1.048.868 2.01.328 2.01-.466 0-1.708-1.197-1.913-1.844-.386-1.215-.708-.476-.628 1.44.093 2.235-.291 3.073-.98 2.14-.209-.283-.38-.79-.38-1.125 0-1.043-.687-.687-2.096 1.084-1.349 1.695-1.349 1.695-1.379 7.428-.038 7.314-1.055 6.834 9.561 4.506 4.477-.982 10.322-1.47 14.868-1.24 4.688.238 3.672 3.697-1.455 4.956-.409.1-.92.453-1.137.784-.65.99-2.27 1.928-3.677 2.128-.727.103-2.156.48-3.175.84a64.774 64.774 0 01-3.123 1.01c-.698.198-2.008.604-2.91.903-.902.3-3.056.833-4.786 1.186-3.987.815-3.715.3-3.092 5.859.292 2.605.84 8.012 1.22 12.014.378 4.001.858 8.087 1.067 9.079.554 2.631.514 3.091-.266 3.091-.57 0-.666-.148-.818-1.256a28.357 28.357 0 00-.392-2.183c-.232-.979-.522-3.622-1.204-10.98-.23-2.474-.65-6.582-.933-9.129-1.164-10.46-1.534-18.21-1.307-27.44.004-.178.914-1.368 2.02-2.647 2.697-3.112 2.958-3.42 4.331-5.105a128.79 128.79 0 012.447-2.894c.695-.793 1.264-1.555 1.264-1.693 0-.51-1.84-2.025-2.46-2.025-.792 0-1.622-.839-1.224-1.237.663-.663-1.455-2.267-2.21-1.673-1.288 1.014-2.248.358-1.391-.95.623-.95.49-1.144-2.349-3.404-2.604-2.073-2.677-2.183-3.175-4.774-.301-1.568-.922-8.006-1.104-11.453-.12-2.266-.285-3.482-.464-3.422-.39.13-2.154 3.688-2.848 5.747-.744 2.203-.517 2.107-5 2.113-3.92.005-14.445.386-18.558.673-2.73.19-3.174-.09-5.625-3.535-4.075-5.728-4.74-4.942-3.877 4.585.158 1.746.406 5.556.55 8.467.145 2.91.382 6.423.527 7.805.145 1.382.382 5.252.526 8.599.144 3.347.569 9.36.943 13.361.538 5.752.729 9.827.91 19.447.26 13.781.088 12.66 2.696 17.497 2.384 4.423 2.824 4.661 6.562 3.558 1.583-.467 1.434-6.147-.156-5.93-1.726.237-2.258-.745-3.834-7.076-1.638-6.582-1.775-13.675-.255-13.168.25.083.354 1.056.397 3.675.069 4.207.355 6.087 1.63 10.705 1.258 4.556 1.128 4.365 2.968 4.365 2.124 0 2.71.768 1.728 2.267-.36.548-.402 1.076-.252 3.122.211 2.879.18 2.93-2.146 3.486-4.263 1.019-5.442.426-7.538-3.785-1.536-3.085-1.573-3.037-1.484 1.899.078 4.39.078 4.39-.613 4.389-.692 0-.692 0-.866-13.031zm44.47-18.58c1.594-.36 4.87-1.313 7.279-2.117 2.408-.804 4.602-1.463 4.875-1.464 1.245-.004 2.516-.615 3.564-1.714.639-.67 1.465-1.246 1.934-1.347 1.27-.275 3.38-1.426 3.26-1.78-.287-.853-10.795-.373-15.803.722-6.833 1.494-7.987 1.72-8.876 1.73-1.256.015-1.34.26-1.131 3.313.264 3.862.057 3.75 4.898 2.657zm43.783 30.618c-.643-.797-.867-.927-1.137-.661-.92.905-1.893.005-1.264-1.17.565-1.056-.722-2.097-1.956-1.583-1.15.479-2.366.093-2.25-.714.065-.465.232-.554.916-.488 1.254.12 1.289-.306.197-2.425-1.205-2.342-.78-3.142 2.736-5.138.822-.467.751-1.026-.34-2.684-1.027-1.559-1.085-2.225-.204-2.35.471-.068.727.226 1.437 1.653.475.955.988 1.736 1.139 1.736.797 0 3.043-1.201 3.3-1.766.358-.786.971-1.04 1.485-.614.318.265.68.187 1.915-.41 3.456-1.671 3.631-1.87 6.02-6.84 4.617-9.602 6.51-11.149 6.786-5.546.223 4.503.117 4.28 2.949 6.208 1.34.912 3.298 2.29 4.352 3.064 1.053.773 1.984 1.406 2.069 1.406.084 0 .65.338 1.259.752 2.629 1.787 2.823 1.722 6.716-2.248 1.186-1.21 2.277-1.66 2.964-1.225.743.47.307 10.208-.737 16.452a211.847 211.847 0 00-.686 4.327c-.152 1.113-.247 1.256-.825 1.256-.739 0-.726-1.53.044-5.324.195-.964.488-3.643.649-5.953.161-2.31.403-4.617.538-5.127.316-1.192.32-3.893.007-4.086-.133-.082-1.386.979-2.786 2.358-3.303 3.256-3.012 3.336-13.088-3.626-4.452-3.075-4.465-3.093-4.691-6.401-.207-3.023-.995-2.635-2.918 1.436-4.09 8.66-3.816 8.328-8.958 10.852-1.682.825-2.26 1.253-2.51 1.857-.349.84-.975 1.039-1.224.388-.217-.565-.988-.49-1.57.153-.273.302-1.095.837-1.827 1.188-2.96 1.422-3.51 2.223-2.682 3.913.716 1.465 1.387 2.1 2.07 1.96.211-.043.373.26.424.795.054.56.307 1.012.718 1.28.348.23.704.636.79.906.085.269.827 1.151 1.65 1.96 1.494 1.471 1.494 1.471.409 1.471-.935 0-1.196-.137-1.886-.992zm24.767-4.772c-2.658-1.937-2.58-5.348.123-5.348 2.216 0 3.111 1.032 3.111 3.589 0 2.434-1.321 3.153-3.234 1.759zm1.911-1.85c0-1.34-.615-2.175-1.602-2.175-.8 0-1.134.807-.496 1.202.155.096.22.336.144.535-.15.392 1.009 1.438 1.593 1.438.242 0 .361-.331.361-1zm-13.07-2.394c-1.244-.526-.737-3.934.718-4.821 2.003-1.222 3.357-.322 3.357 2.231 0 2.265-1.934 3.494-4.074 2.59zm2.752-2.575c0-1.321-.22-1.544-1.169-1.183-1.296.492-.825 2.709.52 2.451.57-.108.649-.264.649-1.268zM20.835 62.992c-1.772-2.001-1.932-2.313-1.557-3.025.633-1.2 1.295-1.202 1.312-.002.02 1.385 1.704 2.935 2.187 2.012 1.095-2.09 1.677-2.285 3.072-1.025 1.158 1.047 1.151 1.05 1.596-.849.357-1.52 1.002-2.31 1.59-1.947.387.24.407.136-.877 4.638-.426 1.494-1.17 1.542-2.275.146-1.056-1.333-1.352-1.339-2.08-.042-.526.935-1.029 1.35-1.635 1.35-.12 0-.72-.565-1.333-1.256zm82.163-3.267c-7.111-.54-13.09-2.136-20.823-5.56-4.438-1.966-7.012-2.592-7.488-1.823-.09.146-.484.266-.875.268-.392.002-1.297.18-2.011.397-1.621.491-10.957.561-12.354.092-2.426-.815-2.374-1.64.225-3.586C65.015 45.51 67.092 40.27 65.03 36c-.291-.603-.53-1.273-.53-1.49 0-.217-.238-.8-.53-1.295-1.217-2.062-1.4-3.407-1.089-7.987.16-2.332.341-5.133.405-6.224.437-7.515 5.56-13.524 12.853-15.072 1.526-.325 3.113-.765 3.527-.979C82.34 1.571 85.07 1.12 94.002.582c16.127-.972 22.649-.777 32.457.97.826.147 3.239 1.039 5.362 1.981 2.124.942 3.91 1.714 3.968 1.714.258 0 4.901 2.786 6.102 3.662 17.205 12.543 12.547 40.999-7.805 47.679a111.835 111.835 0 00-4.1 1.445c-4.471 1.706-16.697 2.472-26.988 1.692zm21.307-1.65c2.441-.397 3.646-.75 8.987-2.628 21.296-7.487 24.378-35.617 5.16-47.085-10.004-5.97-24.546-8.534-38.09-6.715-1.74.233-4.656.426-6.481.427-5.987.005-10.985.807-13.664 2.192-.426.22-2.023.658-3.549.972-7.966 1.643-11.633 6.732-12.187 16.913-.442 8.132-.441 8.168.346 9.95 1.928 4.368 2.007 4.695 1.872 7.745-.227 5.136-1.205 6.91-5.704 10.353-.837.64-1.521 1.263-1.521 1.384 0 .844 12.23.613 14.741-.28 2.395-.85 4.732-.345 9.544 2.062 4.858 2.43 12.438 4.411 18.445 4.82 2.328.159 4.293.35 4.366.426.303.314 15.288-.139 17.735-.537zM24.285 54.28c-.733-.287-1.382-1-2.727-2.997-.735-1.092-1.663-2.401-2.062-2.91a19.876 19.876 0 01-1.21-1.747 26.454 26.454 0 00-.953-1.484c-.594-.841-.382-1.399.686-1.798.463-.173 1.437-.58 2.164-.905 3.39-1.513 11.857-2.992 12.525-2.188.45.541-.204 1.01-1.629 1.171-1.141.13-1.141.13-1.471 2.812-.84 6.832-3.022 10.95-5.324 10.046zm-8.902-22.045c-2.558-1.032-1.321-6.387 1.322-5.724 3.257.817 3.57 6.018.359 5.97-.613-.01-1.37-.12-1.681-.246zm2.234-1.378c.752-.752-.228-3.178-1.088-2.69-.762.43-1.24 1.012-1.24 1.506 0 1.167 1.554 1.958 2.328 1.184zm10.178-.1c-1.796-.786-1.218-4.877.689-4.873 2.26.005 3.738 1.173 3.738 2.957 0 2.048-2.074 2.946-4.427 1.917zm2.836-1.299c.659-.793-.372-2.252-1.59-2.252-.448 0-1.101 1.281-.93 1.822.259.815 1.96 1.106 2.52.43z"/></svg>
